<?xml version="1.0" encoding="UTF-8" standalone="no" ?>
<!DOCTYPE svg PUBLIC "-//W3C//DTD SVG 1.1//EN" "http://www.w3.org/Graphics/SVG/1.1/DTD/svg11.dtd">
<svg xmlns="http://www.w3.org/2000/svg" xmlns:xlink="http://www.w3.org/1999/xlink" version="1.1" width="1280" height="1024" viewBox="0 0 1280 1024" xml:space="preserve">
<desc>Created with Fabric.js 3.6.3</desc>
<defs>
</defs>
<g transform="matrix(1.9692780337941629 0 0 1.9692780337941629 639.0307692307692 511.0276970341487)" id="background-logo"  >
<rect style="stroke: none; stroke-width: 1; stroke-dasharray: none; stroke-linecap: butt; stroke-dashoffset: 0; stroke-linejoin: miter; stroke-miterlimit: 4; fill: rgb(224,224,224); fill-rule: nonzero; opacity: 1;"  paint-order="stroke"  x="-325" y="-260" rx="0" ry="0" width="650" height="520" />
</g>
<g transform="matrix(3.9153960763330025 0 0 3.915396076333003 640.0154082476663 518.5334719508303)" id="logo-logo"  >
<g style=""  paint-order="stroke"   >
		<g transform="matrix(1.8693846852675395 0 0 -1.8693846852675395 0 -7.671206994463887)"  >
<path style="stroke: none; stroke-width: 1; stroke-dasharray: none; stroke-linecap: butt; stroke-dashoffset: 0; stroke-linejoin: miter; stroke-miterlimit: 4; fill: rgb(64,81,78); fill-rule: nonzero; opacity: 1;"  paint-order="stroke"  transform=" translate(53.22749999999999, -17.293499999999995)" d="m 0 0 l -0.769 -2.019 c -7.961 -20.903 -28.346 -34.946 -50.721 -34.946 c -29.918 0 -54.259 24.341 -54.259 54.258 c 0 29.919 24.341 54.259 54.259 54.259 c 8.954 0 17.824 -2.225 25.652 -6.434 l 1.902 -1.022 l 5.115 9.509 l -1.903 1.023 c -9.395 5.052 -20.034 7.722 -30.766 7.722 c -35.873 0 -65.057 -29.184 -65.057 -65.057 c 0 -35.872 29.184 -65.056 65.057 -65.056 c 26.826 0 51.264 16.838 60.813 41.9 l 0.769 2.018 z" stroke-linecap="round" />
</g>
		<g transform="matrix(1.8693846852675395 0 0 -1.8693846852675395 21.926169085567608 73.0968669017999)"  >
<path style="stroke: none; stroke-width: 1; stroke-dasharray: none; stroke-linecap: butt; stroke-dashoffset: 0; stroke-linejoin: miter; stroke-miterlimit: 4; fill: rgb(64,81,78); fill-rule: nonzero; opacity: 1;"  paint-order="stroke"  transform=" translate(8.920316490133985, 18.505000000000003)" d="m 0 0 c -2.26 3.118 -12.119 10.318 -26.696 11.41 c -1.248 0.095 -2.511 0.143 -3.753 0.143 c -4.361 0 -8.802 -0.584 -13.203 -1.737 l -0.189 -0.049 c -0.304 -0.08 -0.616 -0.163 -0.923 -0.249 c -0.644 -0.188 -1.15 -0.365 -1.586 -0.554 c -0.983 -0.406 -1.806 -0.91 -2.443 -1.496 c -0.362 -0.332 -0.652 -0.675 -0.885 -1.043 c -0.991 -1.519 -1.085 -3.475 -0.279 -5.813 c 3.463 -10.049 22.552 -24.386 40.862 -30.685 l 0.171 -0.055 c 4.247 -1.453 8.39 -2.474 12.309 -3.033 l 0.096 -0.014 l 28.475 -15.388 l 0.702 0.78 z" stroke-linecap="round" />
</g>
		<g transform="matrix(1.8693846852675395 0 0 -1.8693846852675395 -33.764456319318924 56.4105522626333)"  >
<path style="stroke: none; stroke-width: 1; stroke-dasharray: none; stroke-linecap: butt; stroke-dashoffset: 0; stroke-linejoin: miter; stroke-miterlimit: 4; fill: rgb(64,81,78); fill-rule: nonzero; opacity: 1;"  paint-order="stroke"  transform=" translate(-15.33079785439898, 8.782)" d="m 0 0 c -1.574 4.572 -0.466 7.725 0.744 9.576 c 0.165 0.262 0.351 0.524 0.56 0.783 l 0.454 0.563 l -0.67 0.276 c -1.654 0.677 -3.27 1.588 -4.939 2.783 l -0.615 0.441 l -0.216 -0.724 C -8.02 2.564 -7.087 -6.86 -1.913 -14.317 C 4.795 -23.982 18.264 -30.092 37.036 -31.986 l 0.266 1.033 C 19.206 -23.216 3.519 -10.198 0 0" stroke-linecap="round" />
</g>
		<g transform="matrix(1.8693846852675395 0 0 -1.8693846852675395 -19.75154470759975 -24.992925488152878)"  >
<path style="stroke: none; stroke-width: 1; stroke-dasharray: none; stroke-linecap: butt; stroke-dashoffset: 0; stroke-linejoin: miter; stroke-miterlimit: 4; fill: rgb(64,81,78); fill-rule: nonzero; opacity: 1;"  paint-order="stroke"  transform=" translate(-21.527, -2.4929999999999986)" d="m 0 0 c -2.634 -4.776 -4.032 -9.575 -4.741 -12.759 l -0.073 -0.331 l 1.119 -0.884 c 3.182 -2.508 6.027 -3.797 9.226 -4.178 l 0.123 -0.015 l 0.118 0.041 c 0.329 0.113 0.666 0.219 1.022 0.317 c 5.146 1.461 10.369 2.202 15.524 2.202 c 0.517 0 1.029 -0.007 1.538 -0.022 l 0.513 -0.015 l 0.04 0.512 c 0.149 1.877 0.983 3.716 2.348 5.179 c 1.779 1.905 4.227 2.954 6.892 2.954 c 1.022 0 2.07 -0.155 3.174 -0.474 L 59.82 -11.593 L 38.296 8.782 c -0.17 0.179 -0.358 0.361 -0.546 0.533 l -0.721 0.688 l 0.242 0.061 l -0.493 0.648 C 28.97 20.995 18.226 23.153 10.588 23.153 C 8.402 23.153 6.184 22.977 3.995 22.63 l -0.973 -0.154 l 6.535 -7.38 l -1.464 0.215 c -1.149 0.169 -2.439 0.255 -3.832 0.255 c -5.425 0 -11.232 -1.264 -14.58 -2.517 L -11.881 12.466 L -0.578 9.354 L -2.142 8.769 c -0.34 -0.127 -8.384 -3.177 -13.363 -7 L -16.766 0.801 H 0.441 Z" stroke-linecap="round" />
</g>
</g>
</g>
</svg>